<?xml version="1.0" encoding="UTF-8"?>
<svg width="32px" height="32px" viewBox="0 0 32 32" version="1.1" xmlns="http://www.w3.org/2000/svg" xmlns:xlink="http://www.w3.org/1999/xlink">
    <!-- Generator: Sketch 56.2 (81672) - https://sketch.com -->
    <title>compress-Typeface-player</title>
    <desc>Created with Sketch.</desc>
    <defs>
        <filter x="-13.3%" y="-13.3%" width="126.7%" height="126.7%" filterUnits="objectBoundingBox" id="filter-1">
            <feOffset dx="0" dy="1" in="SourceAlpha" result="shadowOffsetOuter1"></feOffset>
            <feGaussianBlur stdDeviation="0.5" in="shadowOffsetOuter1" result="shadowBlurOuter1"></feGaussianBlur>
            <feComposite in="shadowBlurOuter1" in2="SourceAlpha" operator="out" result="shadowBlurOuter1"></feComposite>
            <feColorMatrix values="0 0 0 0 0   0 0 0 0 0   0 0 0 0 0  0 0 0 0.15 0" type="matrix" in="shadowBlurOuter1" result="shadowMatrixOuter1"></feColorMatrix>
            <feMerge>
                <feMergeNode in="shadowMatrixOuter1"></feMergeNode>
                <feMergeNode in="SourceGraphic"></feMergeNode>
            </feMerge>
        </filter>
        <linearGradient x1="52.6111718%" y1="101.319636%" x2="47.9444041%" y2="2.22044605e-14%" id="linearGradient-2">
            <stop stop-color="#410DD9" offset="0%"></stop>
            <stop stop-color="#2F54F8" offset="100%"></stop>
        </linearGradient>
        <circle id="path-3" cx="15" cy="15" r="9.54545455"></circle>
        <filter x="-7.9%" y="-7.9%" width="115.7%" height="115.7%" filterUnits="objectBoundingBox" id="filter-4">
            <feGaussianBlur stdDeviation="1" in="SourceAlpha" result="shadowBlurInner1"></feGaussianBlur>
            <feOffset dx="0" dy="1" in="shadowBlurInner1" result="shadowOffsetInner1"></feOffset>
            <feComposite in="shadowOffsetInner1" in2="SourceAlpha" operator="arithmetic" k2="-1" k3="1" result="shadowInnerInner1"></feComposite>
            <feColorMatrix values="0 0 0 0 0   0 0 0 0 0   0 0 0 0 0  0 0 0 0.5 0" type="matrix" in="shadowInnerInner1"></feColorMatrix>
        </filter>
        <radialGradient cx="50%" cy="50%" fx="50%" fy="50%" r="50.3926794%" gradientTransform="translate(0.500000,0.500000),scale(0.999957,1.000000),rotate(90.000000),scale(1.000000,0.950670),translate(-0.500000,-0.500000)" id="radialGradient-5">
            <stop stop-color="#E2E5ED" offset="0%"></stop>
            <stop stop-color="#9DA3B5" offset="48.4048274%"></stop>
            <stop stop-color="#E7ECFF" offset="100%"></stop>
        </radialGradient>
    </defs>
    <g id="Page-1" stroke="none" stroke-width="1" fill="none" fill-rule="evenodd">
        <g id="按钮规范" transform="translate(-91.000000, -37.000000)">
            <g id="compress-Typeface-player" transform="translate(91.000000, 37.000000)">
                <g id="preference-system-32px">
                    <g id="13-settings" filter="url(#filter-1)" transform="translate(1.000000, 1.000000)">
                        <circle id="Oval" fill="url(#linearGradient-2)" cx="15" cy="15" r="15"></circle>
                        <g id="Oval">
                            <use fill-opacity="0.5" fill="#000000" fill-rule="evenodd" xlink:href="#path-3"></use>
                            <use fill="black" fill-opacity="1" filter="url(#filter-4)" xlink:href="#path-3"></use>
                        </g>
                        <g id="Group-12" transform="translate(1.363636, 1.363636)">
                            <path d="M11.1234367,21.3669082 L11.2548061,19.8966106 C10.8079812,19.7288601 10.3831501,19.5152676 9.98588777,19.2614765 L8.93747743,20.2770365 C8.57111786,20.0195783 8.22683589,19.7328281 7.90803454,19.4201891 L8.65623119,18.1538328 C8.33981289,17.8147182 8.05682811,17.4432971 7.81261352,17.0449715 L6.45047523,17.4936504 C6.23295292,17.0952809 6.0475924,16.6768313 5.89788375,16.2417918 L7.09175252,15.4448281 C6.96167657,15.0189875 6.87104671,14.5756088 6.82418427,14.1190662 L5.46209478,13.9329132 C5.45707892,13.8153127 5.45454545,13.6970694 5.45454545,13.5782344 C5.45454545,13.221348 5.47739545,12.8697984 5.52171226,12.5249689 L6.86565053,12.3412966 C6.93117748,11.9058968 7.03671303,11.4838113 7.17834145,11.0790039 L6.10943617,10.3654593 C6.30105373,9.9171146 6.53155859,9.48935742 6.79671132,9.08642715 L7.98397503,9.47750355 C8.2183711,9.13154837 8.48295837,8.80819726 8.77389162,8.51134257 L8.17043662,7.48996796 C8.53897366,7.1588834 8.93773669,6.86077693 9.36208134,6.60029291 L10.1893921,7.40168109 C10.535638,7.19716009 10.9012114,7.02250818 11.2826647,6.88121515 L11.1834216,5.77047831 C11.6571716,5.62178982 12.1494821,5.51502943 12.656005,5.45454545 L13.0383094,6.48705336 C13.2353916,6.46979655 13.4348614,6.46098834 13.6363636,6.46098834 C13.8378658,6.46098834 14.0373357,6.46979655 14.2344179,6.48705336 L14.6167223,5.45454545 C15.1232452,5.51502943 15.6155557,5.62178982 16.0893056,5.77047831 L15.9900626,6.88121515 C16.3715158,7.02250818 16.7370892,7.19716009 17.0833352,7.40168109 L17.9106459,6.60029291 C18.3349906,6.86077693 18.7337536,7.1588834 19.1022907,7.48996796 L18.4988357,8.51134257 C18.7897689,8.80819726 19.0543562,9.13154837 19.2887522,9.47750355 L20.476016,9.08642715 C20.7411687,9.48935742 20.9716735,9.9171146 21.1632911,10.3654593 L20.0943858,11.0790039 C20.2360142,11.4838113 20.3415498,11.9058968 20.4070767,12.3412966 L21.751015,12.5249689 C21.7953318,12.8697984 21.8181818,13.221348 21.8181818,13.5782344 C21.8181818,13.6970694 21.8156484,13.8153127 21.8106325,13.9329132 L20.448543,14.1190662 C20.4016806,14.5756088 20.3110507,15.0189875 20.1809747,15.4448281 L21.3748435,16.2417918 C21.2251349,16.6768313 21.0397744,17.0952809 20.822252,17.4936504 L19.4601138,17.0449715 C19.2158992,17.4432971 18.9329144,17.8147182 18.6164961,18.1538328 L19.3646927,19.4201891 C19.0458914,19.7328281 18.7016094,20.0195783 18.3352498,20.2770365 L17.2868395,19.2614765 C16.8895772,19.5152676 16.4647461,19.7288601 16.0179212,19.8966106 L16.1492906,21.3669082 C15.7331693,21.5010633 15.3024897,21.6027968 14.8602282,21.6691324 L14.3496119,20.2900865 C14.1151707,20.3146417 13.877219,20.3272263 13.6363636,20.3272263 C13.3955083,20.3272263 13.1575566,20.3146417 12.9231153,20.2900865 L12.4124991,21.6691324 C11.9702376,21.6027968 11.539558,21.5010633 11.1234367,21.3669082 Z M13.6363636,18.8420698 C16.6488259,18.8420698 19.0909091,16.3999866 19.0909091,13.3875244 C19.0909091,10.3750621 16.6488259,7.93297891 13.6363636,7.93297891 C10.6239014,7.93297891 8.18181818,10.3750621 8.18181818,13.3875244 C8.18181818,16.3999866 10.6239014,18.8420698 13.6363636,18.8420698 Z" id="Combined-Shape" fill="#585F6C"></path>
                            <path d="M9.65410232,26.3411592 L9.84646992,24.5751128 C9.87723164,24.2927023 9.7296664,24.0208127 9.47610583,23.8927151 L8.20530648,23.2507137 C7.94054344,23.1169568 7.61967951,23.1697292 7.41170219,23.3812376 L6.2307062,24.582285 C5.98165078,24.8355689 5.57985872,24.8551982 5.30730026,24.6273973 L4.70660619,24.1253448 C4.44700126,23.9083703 4.38577813,23.5338408 4.56278005,23.2454956 L5.49741807,21.7229222 C5.6440264,21.4840896 5.62956525,21.1798727 5.46096308,20.956024 L4.62061998,19.840322 C4.44140962,19.602389 4.12848635,19.5083337 3.84779366,19.6080336 L2.28566865,20.1628887 C1.95131386,20.281649 1.58176165,20.1241213 1.43590915,19.8006647 L1.09711623,19.0493247 C0.958283267,18.7414352 1.06578053,18.3783059 1.34984273,18.1956063 L2.8364682,17.2394566 C3.07205127,17.0879372 3.19099843,16.8077518 3.13636847,16.5330282 L2.87455763,15.2164315 C2.81685652,14.9262636 2.57861046,14.7064174 2.28474956,14.6721745 L0.395081243,14.4519761 C0.179499369,14.4268549 0.0151762537,14.2470676 0.00949357884,14.0301014 L0.000233741968,13.6765581 C-0.000194853714,13.6601942 -3.39978986e-05,13.6438201 0.000715996689,13.6274678 L0.0335285789,12.9120464 C0.0488383329,12.5782438 0.303806467,12.3047256 0.635714156,12.2660492 L2.37485937,12.0633909 C2.65724997,12.0304847 2.88958213,11.8258092 2.95782633,11.5498201 L3.26003153,10.3276597 C3.33003247,10.0445661 3.21224203,9.74829469 2.96697237,9.59054514 L1.54051191,8.6730917 C1.24853697,8.48530283 1.14427537,8.10811638 1.29835166,7.79703035 L1.68861889,7.00906562 C1.84189972,6.69958564 2.20237248,6.55359082 2.52781213,6.66918455 L4.14933829,7.2451385 C4.42124907,7.34171917 4.72451442,7.25667398 4.90655691,7.03279046 L5.64129527,6.12917826 C5.8239417,5.90455199 5.84481599,5.58907264 5.69335795,5.34233971 L4.78735986,3.8664222 C4.60692678,3.57248743 4.67440833,3.1901033 4.9445535,2.9756847 L5.63511978,2.42757103 C5.90817488,2.21084277 6.30073609,2.23499962 6.54515822,2.48357164 L7.75346786,3.71239638 C7.95773,3.92012656 8.27141105,3.97512371 8.53415924,3.84927365 L9.51957076,3.37728523 C9.78053534,3.25228948 9.93418061,2.97618803 9.90284776,2.68853424 L9.71347602,0.949991567 C9.67597084,0.6056722 9.90257497,0.287942359 10.2403361,0.211262005 L11.0959203,0.0170226724 C11.435213,-0.0600053855 11.778079,0.130790813 11.8914651,0.459723098 L12.4487911,2.07652147 C12.5478145,2.36384913 12.8250582,2.55093329 13.128566,2.53525313 C13.3345868,2.52460945 13.5037162,2.51928761 13.6359543,2.51928761 C13.7681927,2.51928761 13.9373227,2.52460947 14.1433442,2.53525321 C14.4468402,2.55092567 14.7240729,2.36384895 14.8231114,2.07653921 L15.3804434,0.459723098 C15.4938295,0.130790813 15.8366956,-0.0600053855 16.1759883,0.0170226724 L17.0315724,0.211262005 C17.3693336,0.287942359 17.5959377,0.6056722 17.5584325,0.949991567 L17.3690608,2.68853424 C17.3377279,2.97618803 17.4913732,3.25228948 17.7523378,3.37728523 L18.7377493,3.84927365 C19.0004975,3.97512371 19.3141786,3.92012656 19.5184407,3.71239638 L20.7267503,2.48357164 C20.9711725,2.23499962 21.3637337,2.21084277 21.6367888,2.42757103 L22.3273551,2.9756847 C22.5975002,3.1901033 22.6649818,3.57248743 22.4845487,3.8664222 L21.5785506,5.34233971 C21.4270926,5.58907264 21.4479669,5.90455199 21.6306133,6.12917826 L22.3653516,7.03279046 C22.5473941,7.25667398 22.8506595,7.34171917 23.1225703,7.2451385 L24.7440964,6.66918455 C25.0695361,6.55359082 25.4300088,6.69958564 25.5832897,7.00906562 L25.9735569,7.79703035 C26.1276332,8.10811638 26.0233716,8.48530283 25.7313966,8.6730917 L24.3049362,9.59054514 C24.0596665,9.74829469 23.9418761,10.0445661 24.011877,10.3276597 L24.3140822,11.5498201 C24.3823264,11.8258092 24.6146586,12.0304847 24.8970492,12.0633909 L26.6361944,12.2660492 C26.9681021,12.3047256 27.2230702,12.5782438 27.23838,12.9120464 L27.2711926,13.6274678 C27.2719426,13.6438201 27.2721034,13.6601942 27.2716748,13.6765581 L27.262415,14.0301014 C27.2567323,14.2470676 27.0924092,14.4268549 26.8768273,14.4519761 L24.987159,14.6721745 C24.6932981,14.7064174 24.455052,14.9262636 24.3973509,15.2164315 L24.1355401,16.5330282 C24.0809101,16.8077518 24.1998573,17.0879372 24.4354404,17.2394566 L25.9220658,18.1956063 C26.206128,18.3783059 26.3136253,18.7414352 26.1747923,19.0493247 L25.8359994,19.8006647 C25.6901469,20.1241213 25.3205947,20.281649 24.9862399,20.1628887 L23.4241149,19.6080336 C23.1434222,19.5083337 22.8304989,19.602389 22.6512886,19.840322 L21.8109455,20.956024 C21.6423433,21.1798727 21.6278822,21.4840896 21.7744905,21.7229222 L22.7091285,23.2454956 C22.8861304,23.5338408 22.8249073,23.9083703 22.5653024,24.1253448 L21.9646083,24.6273973 C21.6920498,24.8551982 21.2902578,24.8355689 21.0412024,24.582285 L19.8602064,23.3812376 C19.652229,23.1697292 19.3313651,23.1169568 19.0666021,23.2507137 L17.7958027,23.8927151 C17.5422421,24.0208127 17.3946769,24.2927023 17.4254386,24.5751128 L17.6178062,26.3411592 C17.6550512,26.6830896 17.4317839,26.9992206 17.0970842,27.0784654 L16.3629799,27.2522747 C16.0220683,27.3329902 15.6754686,27.1422084 15.561297,26.8109976 L15.0048359,25.196708 C14.9054804,24.9084784 14.6268544,24.7212384 14.3224496,24.7381363 L13.6737447,24.7741467 C13.6485705,24.7755442 13.6233381,24.7755442 13.5981639,24.7741467 L12.949459,24.7381363 C12.6450542,24.7212384 12.3664282,24.9084784 12.2670726,25.196708 L11.7106115,26.8109976 C11.59644,27.1422084 11.2498402,27.3329902 10.9089286,27.2522747 L10.1748244,27.0784654 C9.84012469,26.9992206 9.61685736,26.6830896 9.65410232,26.3411592 Z M13.6363803,14.9990258 C14.3894958,14.9990258 15.0000166,14.388505 15.0000166,13.6353895 C15.0000166,12.8822739 14.3894958,12.2717531 13.6363803,12.2717531 C12.8832647,12.2717531 12.2727439,12.8822739 12.2727439,13.6353895 C12.2727439,14.388505 12.8832647,14.9990258 13.6363803,14.9990258 Z M11.4296162,22.2231095 C12.7372362,20.1503787 12.8801892,17.4402674 11.5697121,15.1704545 C10.1829406,12.7684958 7.55537312,11.5295427 4.96408291,11.7957859 C4.83868492,12.3895617 4.77272727,13.0052601 4.77272727,13.6363636 C4.77272727,17.7697609 7.60202179,21.2423411 11.4296162,22.2231095 Z M7.3413011,7.39647207 C8.36914051,9.85968102 10.8005771,11.5909091 13.6363636,11.5909091 C16.4721502,11.5909091 18.9035868,9.85968102 19.9314262,7.39647207 C18.3252968,5.77623085 16.0980206,4.77272727 13.6363636,4.77272727 C11.1747067,4.77272727 8.9474305,5.77623085 7.3413011,7.39647207 Z M22.3086444,11.7957859 C19.7173542,11.5295427 17.0897867,12.7684958 15.7030152,15.1704545 C14.3925381,17.4402674 14.5354911,20.1503787 15.843111,22.2231095 C19.6707055,21.2423411 22.5,17.7697609 22.5,13.6363636 C22.5,13.0052601 22.4340424,12.3895617 22.3086444,11.7957859 Z" id="Combined-Shape" fill="url(#radialGradient-5)"></path>
                        </g>
                    </g>
                </g>
            </g>
        </g>
    </g>
</svg>