<?xml version="1.0" encoding="UTF-8"?>
<svg width="32px" height="32px" viewBox="0 0 32 32" version="1.1" xmlns="http://www.w3.org/2000/svg" xmlns:xlink="http://www.w3.org/1999/xlink">
    <!-- Generator: Sketch 56.2 (81672) - https://sketch.com -->
    <title>folder-24 </title>
    <desc>Created with Sketch.</desc>
    <defs>
        <filter x="-11.4%" y="-13.9%" width="122.7%" height="127.8%" filterUnits="objectBoundingBox" id="filter-1">
            <feOffset dx="0" dy="0" in="SourceAlpha" result="shadowOffsetOuter1"></feOffset>
            <feGaussianBlur stdDeviation="0.5" in="shadowOffsetOuter1" result="shadowBlurOuter1"></feGaussianBlur>
            <feComposite in="shadowBlurOuter1" in2="SourceAlpha" operator="out" result="shadowBlurOuter1"></feComposite>
            <feColorMatrix values="0 0 0 0 0   0 0 0 0 0   0 0 0 0 0  0 0 0 0.15 0" type="matrix" in="shadowBlurOuter1" result="shadowMatrixOuter1"></feColorMatrix>
            <feMerge>
                <feMergeNode in="shadowMatrixOuter1"></feMergeNode>
                <feMergeNode in="SourceGraphic"></feMergeNode>
            </feMerge>
        </filter>
        <linearGradient x1="50%" y1="0%" x2="50%" y2="37.9679618%" id="linearGradient-2">
            <stop stop-color="#00B8FF" offset="0%"></stop>
            <stop stop-color="#2E5DFF" offset="100%"></stop>
        </linearGradient>
        <path d="M13,1 C13.306433,1.61286606 13.9328289,2 14.618034,2 L19.4144144,2 C20.8423939,2 22,3.1576061 22,4.58558559 L22,15.4144144 C22,16.8423939 20.8423939,18 19.4144144,18 L2.58558559,18 C1.1576061,18 -4.20135979e-14,16.8423939 -4.26325641e-14,15.4144144 L-4.26325641e-14,2.58558559 C-4.28074412e-14,1.1576061 1.1576061,-3.2600286e-14 2.58558559,-3.19744231e-14 L11.381966,-3.19744231e-14 C12.0671711,-3.137661e-14 12.693567,0.387133935 13,1 Z" id="path-3"></path>
        <linearGradient x1="50%" y1="0%" x2="50%" y2="11.7957837%" id="linearGradient-5">
            <stop stop-color="#FFFFFF" offset="0%"></stop>
            <stop stop-color="#CEF5FF" offset="100%"></stop>
        </linearGradient>
        <path d="M2.66216216,3 L19.3378378,3 C20.2558247,3 21,3.74417535 21,4.66216216 L21,9.33783784 C21,10.2558247 20.2558247,11 19.3378378,11 L2.66216216,11 C1.74417535,11 1,10.2558247 1,9.33783784 L1,4.66216216 C1,3.74417535 1.74417535,3 2.66216216,3 Z" id="path-6"></path>
        <filter x="-7.5%" y="-18.8%" width="115.0%" height="137.5%" filterUnits="objectBoundingBox" id="filter-7">
            <feOffset dx="0" dy="0" in="SourceAlpha" result="shadowOffsetOuter1"></feOffset>
            <feGaussianBlur stdDeviation="0.5" in="shadowOffsetOuter1" result="shadowBlurOuter1"></feGaussianBlur>
            <feColorMatrix values="0 0 0 0 0   0 0 0 0 0   0 0 0 0 0  0 0 0 0.2 0" type="matrix" in="shadowBlurOuter1"></feColorMatrix>
        </filter>
        <filter x="-7.5%" y="-18.8%" width="115.0%" height="137.5%" filterUnits="objectBoundingBox" id="filter-8">
            <feOffset dx="0" dy="1" in="SourceAlpha" result="shadowOffsetInner1"></feOffset>
            <feComposite in="shadowOffsetInner1" in2="SourceAlpha" operator="arithmetic" k2="-1" k3="1" result="shadowInnerInner1"></feComposite>
            <feColorMatrix values="0 0 0 0 1   0 0 0 0 1   0 0 0 0 1  0 0 0 0.5 0" type="matrix" in="shadowInnerInner1"></feColorMatrix>
        </filter>
        <radialGradient cx="50%" cy="0%" fx="50%" fy="0%" r="117.712413%" gradientTransform="translate(0.500000,0.000000),scale(0.590909,1.000000),rotate(84.010553),translate(-0.500000,-0.000000)" id="radialGradient-9">
            <stop stop-color="#48D5FF" offset="0%"></stop>
            <stop stop-color="#0083F6" offset="100%"></stop>
        </radialGradient>
    </defs>
    <g id="Page-1" stroke="none" stroke-width="1" fill="none" fill-rule="evenodd">
        <g id="按钮规范" transform="translate(-200.000000, -37.000000)">
            <g id="folder-24-" transform="translate(200.000000, 37.000000)">
                <g id="folder-24" transform="translate(4.000000, 4.000000)">
                    <g id="Group-2" filter="url(#filter-1)" transform="translate(1.000000, 3.000000)">
                        <mask id="mask-4" fill="white">
                            <use xlink:href="#path-3"></use>
                        </mask>
                        <use id="Mask" fill="url(#linearGradient-2)" xlink:href="#path-3"></use>
                        <g id="Rectangle" mask="url(#mask-4)">
                            <use fill="black" fill-opacity="1" filter="url(#filter-7)" xlink:href="#path-6"></use>
                            <use fill="url(#linearGradient-5)" fill-rule="evenodd" xlink:href="#path-6"></use>
                            <use fill="black" fill-opacity="1" filter="url(#filter-8)" xlink:href="#path-6"></use>
                        </g>
                        <g id="Group" mask="url(#mask-4)" fill="url(#radialGradient-9)">
                            <g transform="translate(0.000000, 4.312500)" id="Rectangle">
                                <path d="M7.10542736e-15,0.6875 L22,0.6875 L22,11.1019144 C22,12.5298939 20.8423939,13.6875 19.4144144,13.6875 L2.58558559,13.6875 C1.1576061,13.6875 8.99269418e-15,12.5298939 7.10542736e-15,11.1019144 L7.10542736e-15,0.6875 Z"></path>
                            </g>
                        </g>
                    </g>
                </g>
            </g>
        </g>
    </g>
</svg>